<?xml version="1.0" encoding="utf-8"?>
<svg xmlns="http://www.w3.org/2000/svg" viewBox="0 0 147.2 37.5">
<g>
	<path fill="#414042" d="M41.6,31.8c-7.3,0-13.3-5.5-13.3-12.3S34.3,7.3,41.6,7.3c7.3,0,13.3,5.5,13.3,12.3S48.9,31.8,41.6,31.8z
		 M41.6,11.3c-5.1,0-9.3,3.7-9.3,8.3s4.1,8.3,9.3,8.3s9.3-3.7,9.3-8.3S46.7,11.3,41.6,11.3z M20.6,24.5c-1.7,2-4.3,3.3-7.3,3.3
		c-5.1,0-9.3-3.7-9.3-8.3s4.1-8.3,9.3-8.3c3,0,5.6,1.3,7.3,3.2h4.7c-2.1-4.3-6.7-7.2-12.1-7.2C5.9,7.3,0,12.8,0,19.5
		s5.9,12.3,13.3,12.3c5.4,0,10-3,12.1-7.3H20.6z M147.2,7.7h-27.7v4h11.8v19.9h4V11.7h11.8V7.7z M111.7,18.8
		c-2.3-0.9-4.5-1.1-6.7-1.2c-1.9-0.1-3.8-0.3-5.5-1c-1-0.4-1.7-1-1.8-1.6c-0.1-0.5,0.5-1.3,1.4-1.9c2.3-1.6,5.6-2.2,8.6-1.4
		c1.4,0.4,2.6,1,3.6,1.8h5.2c-1.7-2.8-4.4-4.8-7.7-5.7c-4.1-1.1-8.6-0.4-11.9,2c-2.2,1.5-3.3,3.6-3,5.7c0.2,2.1,1.8,3.8,4.3,4.8
		c2.3,0.9,4.5,1.1,6.7,1.2c1.9,0.1,3.8,0.3,5.5,1c1,0.4,1.7,1,1.8,1.6c0.1,0.5-0.5,1.3-1.4,1.9c-2.3,1.6-5.6,2.2-8.6,1.4
		c-1.9-0.5-3.4-1.5-4.6-2.8h-4.7c1.6,3.3,4.5,5.7,8.3,6.7c1.3,0.3,2.6,0.5,3.8,0.5c2.9,0,5.8-0.9,8.1-2.5c2.2-1.5,3.3-3.6,3-5.6
		C115.8,21.5,114.2,19.8,111.7,18.8z"/>
	<path fill="#27AAE1" d="M90.9,35.8l-5.5-11.4c1.1,0.5,2.5,0.9,4.5,0.9v-4c-2.1,0-3-0.6-4.2-1.3c-0.8-0.5-1.7-1-3-1.4L73.8,0l-9.5,19.8
		c-1.3-0.8-3-1.7-6-1.7v4c2.1,0,3,0.6,4.2,1.3c0,0,0,0,0.1,0l-5.9,12.4l3.6,1.7l6-12.5c0.7,0.2,1.6,0.3,2.6,0.3c3.2,0,4.9-1,6.3-1.9
		c1.2-0.7,2.2-1.3,4.2-1.3c0.2,0,0.4,0,0.6,0l7.4,15.4L90.9,35.8z M73.1,20c-1.2,0.7-2.2,1.3-4.2,1.3c-0.3,0-0.5,0-0.8,0l5.7-12
		l4.3,8.9C75.7,18.4,74.2,19.2,73.1,20z"/>
</g>
</svg>
