<?xml version="1.0" encoding="utf-8"?>
<svg xmlns="http://www.w3.org/2000/svg" viewBox="0 0 147.2 37.5">
<path fill="#414042" d="M41.6,31c-7.3,0-13.3-5.5-13.3-12.3S34.3,6.5,41.6,6.5c7.3,0,13.3,5.5,13.3,12.3S48.9,31,41.6,31z M41.6,10.5
	c-5.1,0-9.3,3.7-9.3,8.3s4.1,8.3,9.3,8.3s9.3-3.7,9.3-8.3S46.7,10.5,41.6,10.5z M20.6,23.7c-1.7,2-4.3,3.3-7.3,3.3
	C8.1,27,4,23.3,4,18.7s4.1-8.3,9.3-8.3c3,0,5.6,1.3,7.3,3.2h4.7c-2.1-4.3-6.7-7.2-12.1-7.2C5.9,6.5,0,12,0,18.7S5.9,31,13.3,31
	c5.4,0,10-3,12.1-7.3H20.6z M147.2,6.9h-27.7v4h11.8v19.9h4V10.9h11.8V6.9z M111.7,18c-2.3-0.9-4.5-1.1-6.7-1.2
	c-1.9-0.1-3.8-0.3-5.5-1c-1-0.4-1.7-1-1.8-1.6c-0.1-0.5,0.5-1.3,1.4-1.9c2.3-1.6,5.6-2.2,8.6-1.4c1.4,0.4,2.6,1,3.6,1.8h5.2
	c-1.7-2.8-4.4-4.8-7.7-5.7c-4.1-1.1-8.6-0.4-11.9,2c-2.2,1.5-3.3,3.6-3,5.7c0.2,2.1,1.8,3.8,4.3,4.8c2.3,0.9,4.5,1.1,6.7,1.2
	c1.9,0.1,3.8,0.3,5.5,1c1,0.4,1.7,1,1.8,1.6c0.1,0.5-0.5,1.3-1.4,1.9c-2.3,1.6-5.6,2.2-8.6,1.4c-1.9-0.5-3.4-1.5-4.6-2.8h-4.7
	c1.6,3.3,4.5,5.7,8.3,6.7c1.3,0.3,2.6,0.5,3.8,0.5c2.9,0,5.8-0.9,8.1-2.5c2.2-1.5,3.3-3.6,3-5.6C115.8,20.7,114.2,19,111.7,18z"/>
<path fill="#27AAE1" d="M68.6,21.3c3.2,0,4.9-1,6.3-1.9c1.2-0.7,2.2-1.3,4.2-1.3s3,0.6,4.2,1.3c1.4,0.8,3.1,1.9,6.3,1.9v-4
	c-2.1,0-3-0.6-4.2-1.3c-1.2-0.7-2.7-1.6-5.1-1.8L73.6,0l-8,16.6c-0.4-0.2-0.8-0.4-1.2-0.7c-1.4-0.8-3.1-1.9-6.3-1.9v4
	c2.1,0,3,0.6,4.2,1.3C63.7,20.2,65.5,21.3,68.6,21.3z M76.1,14.5c-1.4,0.4-2.4,1-3.2,1.5c-0.9,0.6-1.7,1-3.1,1.2l3.8-7.9L76.1,14.5z
	 M90.7,35.8L87,27.9c0.8,0.2,1.7,0.3,2.8,0.3v-4c-2.1,0-3-0.6-4.2-1.3c-1.4-0.8-3.1-1.9-6.3-1.9c-3.2,0-4.9,1-6.3,1.9
	c-1.2,0.7-2.2,1.3-4.2,1.3c-2.1,0-3-0.6-4.2-1.3c-1.4-0.8-3.1-1.9-6.3-1.9v4c1.4,0,2.3,0.3,3.2,0.7l-4.8,10l3.6,1.7l4.7-9.9
	c1,0.4,2.2,0.6,3.8,0.6c3.2,0,4.9-1,6.3-1.9c1.2-0.7,2.2-1.3,4.2-1.3c0.9,0,1.5,0.1,2.1,0.3l5.8,12.1L90.7,35.8z"/>
</svg>
